<?xml version="1.0" encoding="UTF-8" standalone="no"?>
<!DOCTYPE svg PUBLIC "-//W3C//DTD SVG 1.1//EN" "http://www.w3.org/Graphics/SVG/1.1/DTD/svg11.dtd">
<svg width="100%" height="100%" viewBox="0 0 512 512" version="1.1" xmlns="http://www.w3.org/2000/svg" xmlns:xlink="http://www.w3.org/1999/xlink" xml:space="preserve" xmlns:serif="http://www.serif.com/" style="fill-rule:evenodd;clip-rule:evenodd;stroke-linejoin:round;stroke-miterlimit:2;">
    <g>
        <g>
            <g>
                <path d="M247.612,61.19L271.19,61.19L271.19,29.253C271.19,20.859 264.385,14.054 255.991,14.054C247.597,14.054 240.792,20.859 240.792,29.253L240.792,62.819C242.845,61.785 245.156,61.19 247.612,61.19Z" style="fill:rgb(102,94,104);fill-rule:nonzero;"/>
                <path d="M271.19,196.132L271.19,152.197C269.622,152.744 267.944,153.058 266.188,153.058L240.792,153.058L240.792,197.762C242.845,196.728 245.156,196.132 247.612,196.132L271.19,196.132Z" style="fill:rgb(102,94,104);fill-rule:nonzero;"/>
                <path d="M247.612,220.529C245.156,220.529 242.844,219.933 240.792,218.899L240.792,389.395L271.19,389.395L271.19,220.529L247.612,220.529Z" style="fill:rgb(102,94,104);fill-rule:nonzero;"/>
                <path d="M240.792,83.957L240.792,128.661L266.188,128.661C267.944,128.661 269.622,128.974 271.19,129.521L271.19,85.587L247.612,85.587C245.156,85.587 242.845,84.991 240.792,83.957Z" style="fill:rgb(102,94,104);fill-rule:nonzero;"/>
            </g>
            <path d="M305.437,58.189L247.613,58.189C239.219,58.189 232.414,64.994 232.414,73.388C232.414,81.783 239.219,88.587 247.613,88.587L305.437,88.587L305.437,58.189Z" style="fill:rgb(168,156,168);fill-rule:nonzero;"/>
            <path d="M305.437,193.131L247.613,193.131C239.219,193.131 232.414,199.936 232.414,208.33C232.414,216.724 239.219,223.529 247.613,223.529L305.437,223.529L305.437,193.131Z" style="fill:rgb(168,156,168);fill-rule:nonzero;"/>
            <path d="M266.188,125.66L206.545,125.66L206.545,156.058L266.188,156.058C274.583,156.058 281.388,149.253 281.388,140.859C281.388,132.465 274.583,125.66 266.188,125.66Z" style="fill:rgb(168,156,168);fill-rule:nonzero;"/>
            <path d="M266.659,73.388C266.659,64.994 273.464,58.189 281.859,58.189L247.613,58.189C239.219,58.189 232.414,64.994 232.414,73.388C232.414,81.783 239.219,88.587 247.613,88.587L281.859,88.587C273.464,88.586 266.659,81.783 266.659,73.388Z" style="fill:rgb(123,108,121);fill-rule:nonzero;"/>
            <path d="M266.659,208.33C266.659,199.936 273.464,193.131 281.859,193.131L247.613,193.131C239.219,193.131 232.414,199.936 232.414,208.33C232.414,216.724 239.219,223.529 247.613,223.529L281.859,223.529C273.464,223.529 266.659,216.724 266.659,208.33Z" style="fill:rgb(123,108,121);fill-rule:nonzero;"/>
            <path d="M240.792,140.859C240.792,132.465 247.597,125.66 255.991,125.66L206.546,125.66L206.546,156.058L255.991,156.058C247.597,156.058 240.792,149.253 240.792,140.859Z" style="fill:rgb(123,108,121);fill-rule:nonzero;"/>
            <path d="M463.621,71.069L426.554,33.263L307.375,33.263C304.648,33.263 302.437,35.474 302.437,38.201L302.437,108.574C302.437,111.302 304.648,113.513 307.375,113.513L426.555,113.513L463.622,75.707C464.884,74.418 464.884,72.357 463.621,71.069Z" style="fill:rgb(141,67,203);fill-rule:nonzero;"/>
            <path d="M374.069,108.574L374.069,38.201C374.069,35.474 376.28,33.263 379.007,33.263L307.374,33.263C304.647,33.263 302.436,35.474 302.436,38.201L302.436,108.574C302.436,111.302 304.647,113.513 307.374,113.513L379.005,113.513C376.28,113.512 374.069,111.302 374.069,108.574Z" style="fill:rgb(99,0,186);fill-rule:nonzero;"/>
            <path d="M204.607,101.193L85.427,101.193L48.361,139C47.098,140.288 47.098,142.349 48.361,143.637L85.428,181.444L204.608,181.444C207.335,181.444 209.546,179.232 209.546,176.505L209.546,106.132C209.545,103.405 207.335,101.193 204.607,101.193Z" style="fill:rgb(67,203,142);fill-rule:nonzero;"/>
            <g transform="matrix(1,0,0,1,10,0)">
                <path d="M107.474,139L144.542,101.193L85.427,101.193L48.361,139C47.098,140.288 47.098,142.349 48.361,143.637L85.428,181.444L144.542,181.444L107.474,143.637C106.211,142.349 106.211,140.288 107.474,139Z" style="fill:rgb(0,186,102);fill-rule:nonzero;"/>
            </g>
            <path d="M463.621,206.93L426.555,169.124L307.375,169.124C304.648,169.124 302.437,171.335 302.437,174.062L302.437,244.435C302.437,247.163 304.648,249.374 307.375,249.374L426.555,249.374L463.622,211.568C464.884,210.28 464.884,208.218 463.621,206.93Z" style="fill:rgb(67,159,203);fill-rule:nonzero;"/>
            <path d="M374.069,244.435L374.069,174.062C374.069,171.335 376.28,169.124 379.007,169.124L307.374,169.124C304.647,169.124 302.436,171.335 302.436,174.062L302.436,244.435C302.436,247.163 304.647,249.374 307.374,249.374L379.007,249.374C376.28,249.374 374.069,247.163 374.069,244.435Z" style="fill:rgb(0,127,186);fill-rule:nonzero;"/>
            <path d="M9.339,136.706L39.885,105.552C42.618,102.763 46.359,101.193 50.263,101.193L87.427,101.193L50.361,139C49.098,140.288 49.098,142.349 50.361,143.637L87.428,181.444L50.263,181.444C46.359,181.444 42.618,179.872 39.885,177.085L9.339,145.931C6.828,143.369 6.828,139.269 9.339,136.706Z" style="fill:rgb(177,219,252);fill-rule:nonzero;"/>
            <path d="M502.643,68.776L472.097,37.621C469.364,34.833 465.623,33.263 461.719,33.263L424.555,33.263L461.622,71.069C462.885,72.357 462.885,74.418 461.622,75.707L424.555,113.513L461.719,113.513C465.623,113.513 469.364,111.942 472.097,109.154L502.643,78C505.154,75.439 505.154,71.338 502.643,68.776Z" style="fill:rgb(223,235,250);fill-rule:nonzero;"/>
            <path d="M502.643,204.637L472.097,173.482C469.364,170.694 465.623,169.124 461.719,169.124L424.555,169.124L461.622,206.93C462.885,208.218 462.885,210.28 461.622,211.568L424.555,249.374L461.719,249.374C465.623,249.374 469.364,247.803 472.097,245.015L502.643,213.861C505.154,211.3 505.154,207.199 502.643,204.637Z" style="fill:rgb(223,235,250);fill-rule:nonzero;"/>
            <path d="M275.383,386.395L236.599,386.395C233.843,386.395 231.608,388.631 231.608,391.387L231.608,470.097L280.374,470.097L280.374,391.387C280.374,388.63 278.139,386.395 275.383,386.395Z" style="fill:rgb(183,174,184);fill-rule:nonzero;"/>
            <path d="M267.104,386.395L236.599,386.395C233.843,386.395 231.608,388.631 231.608,391.387L231.608,470.096L262.112,470.096L262.112,391.387C262.112,388.63 264.347,386.395 267.104,386.395Z" style="fill:rgb(168,156,168);fill-rule:nonzero;"/>
            <path d="M306.962,483.295C306.962,474.901 300.157,468.096 291.763,468.096L221.158,468.096C212.764,468.096 205.959,474.901 205.959,483.295C205.959,491.689 212.764,498.494 221.158,498.494L291.763,498.494C300.157,498.494 306.962,491.689 306.962,483.295Z" style="fill:rgb(168,156,168);fill-rule:nonzero;"/>
            <path d="M249.318,483.295C249.318,474.901 256.123,468.096 264.517,468.096L221.157,468.096C212.763,468.096 205.958,474.901 205.958,483.295C205.958,491.689 212.763,498.494 221.157,498.494L264.517,498.494C256.123,498.494 249.318,491.689 249.318,483.295Z" style="fill:rgb(123,108,121);fill-rule:nonzero;"/>
        </g>
        <path d="M3.99,150.907L34.535,182.063C38.652,186.262 44.388,188.671 50.269,188.671L204.613,188.671C211.472,188.671 217.053,183.09 217.053,176.231L217.053,163.285L233.296,163.285L233.296,190.46C228.187,194.626 224.918,200.965 224.918,208.056C224.918,215.147 228.187,221.486 233.296,225.652L233.296,379.078C228.01,380.535 224.112,385.37 224.112,391.112L224.112,460.321L221.163,460.321C208.645,460.321 198.463,470.504 198.463,483.021C198.463,495.538 208.646,505.721 221.163,505.721L291.768,505.721C304.286,505.721 314.468,495.538 314.468,483.021C314.468,470.504 304.285,460.321 291.768,460.321L287.88,460.321L287.88,391.112C287.88,385.371 283.982,380.535 278.696,379.078L278.696,316.708C278.696,312.565 275.339,309.206 271.195,309.206C267.052,309.206 263.694,312.565 263.694,316.708L263.694,378.619L248.297,378.619L248.297,230.756L263.694,230.756L263.694,317.062C263.694,321.205 267.052,324.563 271.195,324.563C275.339,324.563 278.696,321.205 278.696,317.062L278.696,230.756L294.941,230.756L294.941,244.161C294.941,251.02 300.522,256.601 307.381,256.601L461.724,256.601C467.607,256.601 473.342,254.192 477.458,249.992L508.003,218.839C513.262,213.475 513.376,204.591 508.003,199.111L477.459,167.958C474.371,164.807 470.373,162.665 466.085,161.79C464.655,161.498 463.194,161.348 461.723,161.348L307.38,161.348C300.521,161.348 294.94,166.928 294.94,173.787L294.94,185.355L278.697,185.355L278.697,159.517C284.836,155.45 288.894,148.484 288.894,140.584C288.894,132.684 284.835,125.718 278.697,121.65L278.697,95.814L294.941,95.814L294.941,108.3C294.941,115.159 300.522,120.74 307.381,120.74L461.724,120.74C467.608,120.74 473.343,118.331 477.458,114.131L508.002,82.978C512.945,77.938 513.299,69.975 509.084,64.506C508.75,64.072 508.395,63.65 508.003,63.251L477.459,32.098C473.342,27.897 467.606,25.489 461.724,25.489L345.257,25.489C341.113,25.489 337.756,28.847 337.756,32.99C337.756,37.132 341.113,40.491 345.257,40.491L421.41,40.491L453.396,73.115L421.409,105.74L309.944,105.74L309.944,40.492L349.572,40.492C353.716,40.492 357.073,37.133 357.073,32.991C357.073,28.848 353.716,25.49 349.572,25.49L307.381,25.49C300.522,25.49 294.941,31.07 294.941,37.929L294.941,50.416L278.698,50.416L278.698,28.979C278.698,16.462 268.515,6.279 255.998,6.279C243.481,6.279 233.298,16.462 233.298,28.979L233.298,55.518C228.189,59.683 224.92,66.023 224.92,73.113C224.92,80.203 228.189,86.543 233.298,90.71L233.298,117.885L217.055,117.885L217.055,105.858C217.055,98.999 211.474,93.418 204.615,93.418L50.271,93.418C44.389,93.418 38.655,95.826 34.537,100.027L3.992,131.181C3.848,131.327 3.724,131.486 3.588,131.638C-1.53,137.338 -0.972,145.848 3.99,150.907ZM466.984,80.683C471.077,76.509 471.076,69.717 466.984,65.543L442.419,40.489L461.724,40.489C463.602,40.489 465.431,41.258 466.746,42.598L496.664,73.113L466.745,103.629C465.595,104.801 464.051,105.536 462.425,105.702C462.193,105.726 461.959,105.738 461.724,105.738L442.419,105.738L466.984,80.683ZM299.467,483.021C299.467,487.266 296.014,490.719 291.769,490.719L221.164,490.719C216.92,490.719 213.466,487.266 213.466,483.021C213.466,478.776 216.92,475.323 221.164,475.323L291.769,475.323C296.014,475.323 299.467,478.776 299.467,483.021ZM271.196,393.622L272.879,393.622L272.879,460.321L239.115,460.321L239.115,393.622L271.196,393.622ZM461.724,176.351C463.601,176.351 465.431,177.12 466.746,178.46L496.664,208.974L466.745,239.49C465.431,240.83 463.601,241.598 461.723,241.598L442.417,241.598L466.982,216.544C471.076,212.37 471.076,205.577 466.983,201.403L442.418,176.349L461.724,176.349L461.724,176.351ZM309.944,176.351L421.411,176.351L453.397,208.975L421.41,241.6L309.944,241.6L309.944,176.351ZM294.941,215.754L247.619,215.754C243.468,215.754 239.922,212.371 239.922,208.056C239.922,203.751 243.456,200.358 247.619,200.358L294.941,200.358L294.941,215.754ZM248.299,185.356L248.299,163.285L263.696,163.285L263.696,185.356L248.299,185.356ZM294.941,80.812L247.619,80.812C243.508,80.812 239.922,77.46 239.922,73.114C239.922,68.744 243.537,65.416 247.619,65.416L294.941,65.416L294.941,80.812ZM248.299,28.979C248.299,24.734 251.752,21.281 255.997,21.281C260.242,21.281 263.695,24.734 263.695,28.979L263.695,50.414L248.298,50.414L248.298,28.979L248.299,28.979ZM248.299,95.814L263.696,95.814L263.696,117.885L248.299,117.885L248.299,95.814ZM266.194,132.887C270.252,132.887 273.892,136.19 273.892,140.585C273.892,144.947 270.281,148.283 266.194,148.283L217.053,148.283L217.053,132.887L266.194,132.887ZM202.051,173.668L90.584,173.668L58.598,141.044L90.584,108.419L202.051,108.419L202.051,173.668ZM50.269,108.42L69.575,108.42L45.011,133.474C40.918,137.647 40.917,144.44 45.01,148.615L69.575,173.668L50.269,173.668C48.392,173.668 46.561,172.899 45.247,171.56L15.33,141.045L45.247,110.531C46.562,109.189 48.392,108.42 50.269,108.42Z" style="fill:rgb(5,4,2);fill-rule:nonzero;"/>
    </g>
</svg>
